<?xml version="1.0" encoding="UTF-8" standalone="no"?>
<!DOCTYPE svg PUBLIC "-//W3C//DTD SVG 1.1//EN" "http://www.w3.org/Graphics/SVG/1.1/DTD/svg11.dtd">
<svg width="100%" height="100%" viewBox="0 0 7112 4445" version="1.1" xmlns="http://www.w3.org/2000/svg" xmlns:xlink="http://www.w3.org/1999/xlink" xml:space="preserve" xmlns:serif="http://www.serif.com/" style="fill-rule:evenodd;clip-rule:evenodd;stroke-linecap:round;stroke-linejoin:round;stroke-miterlimit:1.5;">
    <g transform="matrix(5.55556,0,0,5.55556,0,0)">
        <g transform="matrix(0.494367,1.10517,-1.10517,0.494367,287.424,-412.511)">
            <path d="M313,527.725C358.048,535.731 406.939,540.255 460,541C525.333,545.103 590.667,542.716 656,535C718.39,527.997 774.129,512.094 823,487C944.901,432.861 934.137,352.215 819,261C808.601,254.321 800.639,245.285 795,234C790.231,225.118 788.288,215.499 790,204C781.44,232.976 769.157,257.33 752,281.313C735.281,304.684 723.303,332.784 705,354C686.166,378.573 664.118,398.848 640,418C609.832,439.421 578.338,458.086 546,475C516.492,490.599 484.559,502.05 452,509C404.81,520.152 358.976,527.428 313,527.725Z" style="fill:rgb(229,91,25);stroke:rgb(229,91,25);stroke-width:0.83px;"/>
        </g>
        <g transform="matrix(0.494367,1.10517,-1.10517,0.494367,287.424,-412.511)">
            <path d="M132,410L132,476C176.221,501.229 239.572,515.327 304.346,526.7C304.346,526.7 313.893,528.266 326.046,527.526C347.525,526.218 379.268,521.953 396,519.431C418.106,516.099 440.51,511.172 461,506C480.939,500.967 502.626,494.518 519,487C533.496,480.344 548.833,473 562,466C574.267,459.479 586.833,451.763 598,445C608.454,438.668 619.333,432.253 629,425.42C638.381,418.789 656,404 656,404C646.003,406.404 636.333,409.833 627,413C617.911,416.084 608.333,419.833 600,423C592.304,425.924 584.696,429.076 577,432C568.667,435.167 558.667,439.5 550,442C541.766,444.375 532.833,446.333 525,448C517.71,449.551 510.398,451.095 503,452C494.333,453.06 482.667,454.133 473,454.359C463.663,454.578 453.5,453.919 445,453.359C437.31,452.853 429.167,451.893 422,451C415.311,450.166 408.616,448.294 402,447C394.333,445.5 384.638,444.119 376,442C367.167,439.833 357.928,437.597 349,435C339.5,432.237 328.5,428.587 319,425.42C309.957,422.406 300.667,418.903 292,416C283.704,413.221 275.394,410.469 267,408C258.5,405.5 249.138,403 241,401C233.436,399.141 226.191,397.702 218.173,397C208.542,395.897 200.195,396.314 193,396.481C186.98,396.62 180.823,397.014 175,398C167.584,399.065 162.234,400.26 156,402C148.833,404 139.491,406.483 132,410" style="fill:rgb(227,135,87);stroke:rgb(227,135,87);stroke-width:0.83px;"/>
        </g>
        <g transform="matrix(0.494367,1.10517,-1.10517,0.494367,287.424,-412.511)">
            <path d="M132,410L132,379.313C132,379.313 137.86,376.272 141,375.313C155.362,370.928 191.694,356.991 218.173,353C255.006,347.448 323.286,337.919 362,342C414.269,347.51 476.094,360.064 525,364C568.751,367.521 618.333,370.614 656,357C693.667,343.386 718.692,322.158 750,283.313C722.343,334.89 694.981,370.394 656,404C626.86,412.724 590.833,426.667 562,437C534.8,446.748 505.884,453.219 477,454C446.167,454.833 408.333,448.667 377,442C346.892,435.594 315.471,422.623 289,414C265.859,406.462 242.503,398.883 218.173,396.264C192.148,393.461 155.622,398.31 132,410" style="fill:rgb(234,163,122);stroke:rgb(234,163,122);stroke-width:0.83px;"/>
        </g>
        <g transform="matrix(0.494367,1.10517,-1.10517,0.494367,287.424,-412.511)">
            <path d="M791,201C798.667,185.333 829.465,165.91 853,156C884.667,142.667 938.833,127.667 981,121C1022.19,114.488 1064.36,113.696 1106,116C1148.17,118.333 1234,135 1234,135C1234,135 1231.19,626.13 1231,626C1230.81,625.87 132,628 132,628L132,477C162.453,493.408 201.47,505.949 246,516C286.805,525.052 328.455,531.763 371,536C433.7,541.267 482.036,543.097 522,542.925C575.59,543.673 629.255,540.123 683,532C734.158,523.517 782.745,508.495 828,485C850.822,472.448 873.987,461.005 889.8,436C906.107,410.214 909.773,372.547 896,344C884.345,322.157 868.781,303.647 848,288C833.69,276.674 818.599,262.017 807,250C794.774,237.334 784.17,214.957 791,201Z" style="fill:rgb(252,172,76);stroke:rgb(252,172,76);stroke-width:0.83px;"/>
        </g>
        <g transform="matrix(0.494367,1.10517,-1.10517,0.494367,287.424,-412.511)">
            <path d="M1234,134L1234,29L132,28L132,379C158.865,367.698 187.382,357.936 220,352C257.06,346.701 297.803,340.677 335,340C369.85,339.366 394.192,346.868 441,353C475.05,357.461 509.879,362.806 543,365C575.335,367.142 608.522,368.509 640,361C678.973,351.703 713.946,329.659 750,283.313C767.819,259.448 780.974,233.146 789,204C797.211,182.902 829.834,163.211 883,145C915.843,133.765 950.502,125.088 987,119C1026.51,114.667 1066.5,114.244 1109,115.825C1145.43,118.602 1187.58,124.962 1234,134Z" style="fill:rgb(0,57,226);stroke:rgb(0,57,226);stroke-width:0.83px;"/>
        </g>
    </g>
</svg>
